<svg xmlns="http://www.w3.org/2000/svg" width="185" height="29" viewBox="0 0 185 29">
  <g id="Grupo_3" data-name="Grupo 3" transform="translate(-87 -59)">
    <g id="Grupo_2" data-name="Grupo 2">
      <path id="Caminho_1" data-name="Caminho 1" d="M24.609-28.711v8.2H8.2v2.051H24.609v8.2H8.2V0H0V-28.711Zm10.254,8.2v4.1h8.2a1.813,1.813,0,0,0,2.051-2.051,1.813,1.813,0,0,0-2.051-2.051Zm0,12.3V0h-8.2V-28.711H43.066q10.254,0,10.254,10.254T45.117-8.2L53.32,0H43.066ZM79.98-28.711v8.2H63.574v2.051h12.3v8.2h-12.3V-8.2H79.98V0H55.371V-28.711Zm26.66,0v8.2H90.234v2.051h12.3v8.2h-12.3V-8.2h16.406V0H82.031V-28.711Zm26.66,0v8.2L119.5-8.2h13.8V0H108.691V-8.2l13.8-12.3h-13.8v-8.2Zm12.3,16.406L135.352-28.711h8.757l5.6,8.2,5.6-8.2h8.757L153.809-12.3v12.1h-8.2Z" transform="translate(87 88)" fill="#fff"/>
      <g id="Grupo_1" data-name="Grupo 1" transform="translate(-8)">
        <g id="Elipse_1" data-name="Elipse 1" transform="translate(265 59)" fill="none" stroke="#fff" stroke-width="1">
          <circle cx="7.5" cy="7.5" r="7.5" stroke="none"/>
          <circle cx="7.5" cy="7.5" r="7" fill="none"/>
        </g>
        <path id="Caminho_2" data-name="Caminho 2" d="M4.156,0H3.473l-.82-1.374A2.993,2.993,0,0,0,2.434-1.7a1.247,1.247,0,0,0-.217-.22.752.752,0,0,0-.239-.125.984.984,0,0,0-.289-.039H1.217V0H.643V-4.9H2.105a2.085,2.085,0,0,1,.593.08,1.327,1.327,0,0,1,.472.244,1.136,1.136,0,0,1,.313.408A1.354,1.354,0,0,1,3.6-3.6a1.379,1.379,0,0,1-.077.47,1.227,1.227,0,0,1-.219.381,1.326,1.326,0,0,1-.342.285,1.745,1.745,0,0,1-.449.183v.014a1.034,1.034,0,0,1,.214.125,1.176,1.176,0,0,1,.173.166,2.2,2.2,0,0,1,.162.217q.08.121.179.282ZM1.217-4.382V-2.6H2a1.182,1.182,0,0,0,.4-.065.922.922,0,0,0,.316-.186.845.845,0,0,0,.208-.3,1,1,0,0,0,.075-.395.768.768,0,0,0-.255-.614A1.094,1.094,0,0,0,2-4.382Z" transform="translate(270.5 69)" fill="#fff"/>
      </g>
    </g>
  </g>
</svg>
