<svg xmlns="http://www.w3.org/2000/svg" width="164.063" height="28.711" viewBox="0 0 164.063 28.711">
  <path id="Caminho_1" data-name="Caminho 1" d="M24.609-28.711v8.2H8.2v2.051H24.609v8.2H8.2V0H0V-28.711Zm10.254,8.2v4.1h8.2a1.813,1.813,0,0,0,2.051-2.051,1.813,1.813,0,0,0-2.051-2.051Zm0,12.3V0h-8.2V-28.711H43.066q10.254,0,10.254,10.254T45.117-8.2L53.32,0H43.066ZM79.98-28.711v8.2H63.574v2.051h12.3v8.2h-12.3V-8.2H79.98V0H55.371V-28.711Zm26.66,0v8.2H90.234v2.051h12.3v8.2h-12.3V-8.2h16.406V0H82.031V-28.711Zm26.66,0v8.2L119.5-8.2h13.8V0H108.691V-8.2l13.8-12.3h-13.8v-8.2Zm12.3,16.406L135.352-28.711h8.757l5.6,8.2,5.6-8.2h8.757L153.809-12.3v12.1h-8.2Z" transform="translate(0 28.711)" fill="#fff"/>
</svg>
